<svg id="f102a275-1f74-44bf-b2f8-efeb82850e2c" data-name="Layer 1" xmlns="http://www.w3.org/2000/svg" viewBox="0 0 466.73 512"><defs><style>.afcb571d-49f6-496c-b1c0-e67ee0d7a0f9{fill:#e2e5e7;}.a7d9f1d9-3a9f-428a-b4f2-1bdc9246435d{fill:#b0b7bd;}.e08a4f62-a32f-4ab9-b5ee-a57b610d512f{fill:#cad1d8;}.a06ee5cf-4509-486a-8ab9-e38e207c6674{fill:#a066aa;}.e3085c5f-8b69-4b58-8caa-8ada2976488d{fill:#f15642;}.f8b9ef67-871b-4ea1-a601-1199c14ba3e1{fill:#fff;}</style></defs><path class="afcb571d-49f6-496c-b1c0-e67ee0d7a0f9" d="M107,0A32.09,32.09,0,0,0,75,32V480a32.09,32.09,0,0,0,32,32H427a32.09,32.09,0,0,0,32-32V128L331,0Z" transform="translate(-32)"/><path class="a7d9f1d9-3a9f-428a-b4f2-1bdc9246435d" d="M362,128h96L330,0V96A32.09,32.09,0,0,0,362,128Z" transform="translate(-32)"/><polygon class="e08a4f62-a32f-4ab9-b5ee-a57b610d512f" points="425 224 329 128 425 128 425 224"/><path class="a06ee5cf-4509-486a-8ab9-e38e207c6674" d="M416,416a16,16,0,0,1-16,16H48a16,16,0,0,1-16-16V256a16,16,0,0,1,16-16H400a16,16,0,0,1,16,16Z" transform="translate(-32)"/><path class="e3085c5f-8b69-4b58-8caa-8ada2976488d" d="M498.73,271.14a16,16,0,0,1-16,16h-352a16,16,0,0,1-16-16v-160a16,16,0,0,1,16-16h352a16,16,0,0,1,16,16Z" transform="translate(-32)"/><path class="f8b9ef67-871b-4ea1-a601-1199c14ba3e1" d="M107.14,327.84v47.33c0,5.65-4.61,8.83-9.22,8.83-4.1,0-7.66-3.18-7.66-8.83v-72a8.54,8.54,0,0,1,7.66-8.85c3.71,0,5.89,2.2,8.06,4.63l28.15,38L163.3,297.5c4.22-5.23,14.57-3.2,14.57,5.65v72c0,5.65-3.57,8.83-7.66,8.83-4.61,0-8.19-3.18-8.19-8.83V327.84L140.78,354.7c-4.6,5.65-10.35,5.65-14.59,0Z" transform="translate(-32)"/><path class="f8b9ef67-871b-4ea1-a601-1199c14ba3e1" d="M200.62,303.15c0-10.49,16.9-10.88,16.9,0v73c0,10.62-16.9,10.88-16.9,0Z" transform="translate(-32)"/><path class="f8b9ef67-871b-4ea1-a601-1199c14ba3e1" d="M249,384c-4.22,0-8.83-2.32-8.83-7.94V303.41c0-4.61,4.61-7.94,8.83-7.94h29.3c58.46,0,57.18,88.53,1.15,88.53Zm8-72.93v57.31h21.23c34.54,0,36.08-57.31,0-57.31Z" transform="translate(-32)"/><path class="f8b9ef67-871b-4ea1-a601-1199c14ba3e1" d="M340,303.15c0-10.49,16.9-10.88,16.9,0v73c0,10.62-16.9,10.88-16.9,0Z" transform="translate(-32)"/><path class="e08a4f62-a32f-4ab9-b5ee-a57b610d512f" d="M399,432H75v16H399c9.38,0,17.05-7.2,17.05-16V416C416,424.8,408.33,432,399,432Z" transform="translate(-32)"/><path class="f8b9ef67-871b-4ea1-a601-1199c14ba3e1" d="M193.6,159.14a8.81,8.81,0,0,1,8.69-8.83h29.55c16.64,0,31.62,11.14,31.62,32.48,0,20.23-15,31.49-31.62,31.49H210.48v16.9c0,5.63-3.58,8.81-8.19,8.81a8.61,8.61,0,0,1-8.69-8.81Zm16.88,7.28V198.3h21.36c8.58,0,15.36-7.57,15.36-15.51,0-8.94-6.78-16.37-15.36-16.37Z" transform="translate(-32)"/><path class="f8b9ef67-871b-4ea1-a601-1199c14ba3e1" d="M288.51,240c-4.22,0-8.83-2.3-8.83-7.92V159.4c0-4.59,4.61-7.94,8.83-7.94h29.3C376.27,151.46,375,240,319,240Zm8.07-72.91v57.31h21.23c34.54,0,36.08-57.31,0-57.31Z" transform="translate(-32)"/><path class="f8b9ef67-871b-4ea1-a601-1199c14ba3e1" d="M395.73,168.1v20.34h32.62c4.61,0,9.22,4.61,9.22,9.07,0,4.23-4.61,7.68-9.22,7.68H395.73v26.87a7.58,7.58,0,0,1-7.67,7.92c-5.63,0-9.07-3.44-9.07-7.92V159.38c0-4.59,3.46-7.93,9.07-7.93H433c5.63,0,9,3.34,9,7.93a8.84,8.84,0,0,1-9,8.71H395.73Z" transform="translate(-32)"/></svg>